<mxfile host="app.diagrams.net" modified="2024-07-06T11:09:19.354Z" agent="Mozilla/5.0 (Windows NT 10.0; Win64; x64) AppleWebKit/537.36 (KHTML, like Gecko) Chrome/126.0.0.0 Safari/537.36" version="24.6.4" etag="Ydv8_whTOvdFKGWQXrzF" type="github">
  <diagram name="Page-1" id="KaF4_aQwIeX0xcJ5RG1e">
    <mxGraphModel>
      <root>
        <mxCell id="0" />
        <mxCell id="1" parent="0" />
      </root>
    </mxGraphModel>
  </diagram>
</mxfile>
